<svg xmlns="http://www.w3.org/2000/svg" width="512" height="512" class="fl-svgdocument" overflow="visible"><path fill="#1d69ab" d="M288.316 196.944H464v118.113H288.316z"/><path text-anchor="middle" font-size="100" letter-spacing="0" font-family="Allerta Stencil" fill="#1d69ab" font-weight="400" d="M93.746 261.396l9.728-23.416h6.534l-10.446 20.838v14.308h-5.816v-11.73zm-9.923-23.416h6.534l5.294 13.684-2.574 6.25-9.254-19.934zm45.257 12.492v-4.483q2.578.24 4.654 1.387 2.07 1.143 3.55 2.954 1.48 1.812 2.266 4.151.786 2.335.786 4.864 0 1.143-.141 2.286h-16.36v-4.195h11.017q0-1.24-.405-2.383-.406-1.148-1.192-2.125-.786-.976-1.836-1.645-1.05-.664-2.339-.811zm-.19 18.171q.527 0 1.313-.117.786-.122 1.67-.43.88-.312 1.763-.786.884-.479 1.548-1.148l2.1 3.199q-1.572 1.953-3.672 2.954-2.1 1.001-5.343 1.001-2.622 0-4.907-1.074-2.29-1.07-3.912-2.93-1.621-1.86-2.578-4.341-.953-2.481-.953-5.343 0-2.715.884-5.147.88-2.432 2.408-4.268 1.523-1.836 3.55-2.984 2.031-1.142 4.366-1.284v4.576q-1.763.332-2.91 1.43-1.144 1.1-1.788 2.506-.645 1.406-.904 2.886-.263 1.475-.263 2.525 0 1.86.454 3.457.45 1.597 1.406 2.769.952 1.167 2.359 1.856 1.406.693 3.409.693zm18.744-14.738q0-1.812.669-3.262.664-1.455 1.855-2.48 1.197-1.026 2.696-1.622 1.504-.596 3.125-.742v4.77q-1.24.24-1.933 1.002-.689.762-.689 2.144 0 1.147.737 1.836.743.693 1.885 1.216v5.103q-.81-.24-1.645-.547-.835-.308-1.646-.694-2.53-1.333-3.79-2.812-1.264-1.48-1.264-3.912zm17.785-5.958l-1.856 3.956q-1.289-.664-2.744-1.001-1.455-.332-2.886-.43v-4.717q2.148.092 3.96.595 1.812.499 3.526 1.597zm-17.692 23.035l2.431-3.863q.958.665 2.266 1.236 1.314.576 3.316.576h.24v4.434q-1.192 0-2.193-.073-1.001-.068-1.983-.332-.977-.264-1.978-.742-1-.474-2.1-1.236zm10.206-8.394v-5.055q1.43.474 2.91 1.045 1.48.577 2.696 1.431 1.216.86 2.002 2.125.786 1.264.786 3.169 0 1.86-.669 3.242-.664 1.387-1.787 2.388-1.118 1.001-2.647 1.573-1.523.571-3.291.762v-4.527q1.621-.288 2.505-1.026.884-.742.884-1.982t-.982-1.93q-.976-.693-2.407-1.215zm34.814-24.608l6.202 30.331 6.676-30.33h2.241v12.73l-5.2 22.605h-7.487l-8.917-35.336h6.485zm25.56 30.331l6.724-30.33h6.485l-9.488 35.335h-7.437l-4.772-21.696v-13.64h2.29l6.198 30.331zm33.191-17.839v-4.483q2.579.24 4.654 1.387 2.07 1.143 3.55 2.954 1.48 1.812 2.266 4.151.786 2.335.786 4.864 0 1.143-.141 2.286h-16.36v-4.195h11.017q0-1.24-.405-2.383-.405-1.148-1.191-2.125-.787-.976-1.837-1.645-1.05-.664-2.339-.811zm-.19 18.171q.527 0 1.313-.117.787-.122 1.67-.43.88-.312 1.763-.786.884-.479 1.549-1.148l2.1 3.199q-1.573 1.953-3.673 2.954-2.1 1.001-5.342 1.001-2.623 0-4.908-1.074-2.29-1.07-3.912-2.93-1.621-1.86-2.578-4.341-.952-2.481-.952-5.343 0-2.715.883-5.147.88-2.432 2.408-4.268 1.524-1.836 3.55-2.984 2.032-1.142 4.366-1.284v4.576q-1.763.332-2.91 1.43-1.143 1.1-1.788 2.506-.644 1.406-.903 2.886-.264 1.475-.264 2.525 0 1.86.454 3.457.45 1.597 1.407 2.769.952 1.167 2.358 1.856 1.407.693 3.409.693z"/><path font-size="100" letter-spacing="0" font-family="Allerta Stencil" fill="#fff" font-weight="400" d="M328.655 253.01q1.589.206 3.374 1.031 1.793.833 3.346 2.344 1.553 1.518 2.584 3.692 1.038 2.174 1.038 4.998 0 3.444-1.038 5.929-1.03 2.478-2.584 4.101-1.553 1.617-3.374 2.548-1.828.932-3.515 1.412-1.694.487-3 .586-1.313.106-1.722.106h-7.998v-6.064h7.51q3.657 0 5.725-2.343 2.068-2.344 2.068-6.275 0-3.72-2.138-6.276-2.14-2.548-6.276-2.548h-6.89v-5.584h3.311q1.511 0 3.1-.07 1.588-.07 2.964-.756 1.377-.691 2.238-2.343.86-1.659.86-4.758 0-1.242-.338-2.583-.346-1.349-1.383-2.45-1.031-1.101-2.965-1.793-1.927-.692-5.097-.692h-2.69v-6.268h3.516q3.24 0 6.268.755 3.036.763 5.38 2.415 2.343 1.651 3.726 4.306 1.377 2.654 1.377 6.31 0 2.139-.692 3.897-.685 1.757-1.722 3.063-1.03 1.313-2.38 2.174-1.34.862-2.583 1.137zm-23.986 26.747v-50.803h8.266v50.803h-8.266zm53.9-38.88v38.88h-8.407v-38.88h8.407zm.762-12.41q0 2.068-1.447 3.487-1.447 1.412-3.515 1.412t-3.48-1.447q-1.419-1.447-1.419-3.452 0-2.068 1.454-3.515 1.447-1.447 3.445-1.447 2.068 0 3.515 1.447t1.447 3.515zm41.223 12.41l-13.652 19.37 15.445 19.51h-9.516l-11.3-14.887v-9.586l9.649-14.407h9.374zm-21.854 38.88h-8.408v-53.563h8.408v53.563zm50.183-32.746v-6.48q3.727.346 6.727 2.004 2.993 1.652 5.131 4.271 2.14 2.619 3.276 6 1.136 3.374 1.136 7.03 0 1.653-.204 3.304H421.3v-6.063h15.925q0-1.793-.586-3.445-.586-1.659-1.722-3.07-1.137-1.412-2.654-2.38-1.518-.96-3.381-1.171zm-.276 26.266q.763 0 1.9-.17 1.136-.176 2.413-.62 1.27-.452 2.548-1.137 1.278-.692 2.238-1.659l3.035 4.624q-2.272 2.823-5.308 4.27-3.035 1.447-7.722 1.447-3.79 0-7.094-1.553-3.311-1.546-5.655-4.235-2.343-2.69-3.727-6.275-1.376-3.586-1.376-7.723 0-3.925 1.277-7.44 1.271-3.515 3.48-6.17 2.203-2.653 5.132-4.312 2.937-1.652 6.311-1.857v6.614q-2.548.48-4.207 2.069-1.652 1.588-2.584 3.62-.931 2.034-1.306 4.173-.38 2.131-.38 3.65 0 2.689.656 4.997.65 2.308 2.033 4.002 1.376 1.687 3.41 2.683 2.032 1.002 4.926 1.002z"/><path d="M280.49 206.54v98.988H60.474V206.54H280.49m12.474-9.428H48v117.842h244.964V197.113z" fill="#1d69ab"/></svg>